<?xml version="1.0" encoding="UTF-8" standalone="no"?>
<!-- Created with Inkscape (http://www.inkscape.org/) -->

<svg
   xmlns:dc="http://purl.org/dc/elements/1.1/"
   xmlns:cc="http://creativecommons.org/ns#"
   xmlns:rdf="http://www.w3.org/1999/02/22-rdf-syntax-ns#"
   xmlns:svg="http://www.w3.org/2000/svg"
   xmlns="http://www.w3.org/2000/svg"
   xmlns:sodipodi="http://sodipodi.sourceforge.net/DTD/sodipodi-0.dtd"
   xmlns:inkscape="http://www.inkscape.org/namespaces/inkscape"
   width="32"
   height="32"
   id="svg2"
   version="1.1"
   inkscape:version="0.92.2 (5c3e80d, 2017-08-06)"
   sodipodi:docname="ClamAV.svg"
   inkscape:export-filename="C:\Source\SVN\vb.net\Watch\WatchApp\Images\watch.png"
   inkscape:export-xdpi="768"
   inkscape:export-ydpi="768"
   enable-background="new"
   shape-rendering="crispEdges">
  <defs
     id="defs4" />
  <sodipodi:namedview
     id="base"
     pagecolor="#000000"
     bordercolor="#666666"
     borderopacity="1.0"
     inkscape:pageopacity="0"
     inkscape:pageshadow="2"
     inkscape:zoom="34.604038"
     inkscape:cx="3.3884645"
     inkscape:cy="11.024953"
     inkscape:document-units="px"
     inkscape:current-layer="layer1"
     showgrid="true"
     inkscape:window-width="2736"
     inkscape:window-height="1719"
     inkscape:window-x="-13"
     inkscape:window-y="-13"
     inkscape:window-maximized="1"
     showborder="true"
     showguides="true"
     inkscape:snap-global="true"
     inkscape:pagecheckerboard="true"
     inkscape:guide-bbox="true"
     inkscape:snap-grids="false">
    <inkscape:grid
       type="xygrid"
       id="grid26" />
    <sodipodi:guide
       position="27,35"
       orientation="-0.8660254,0.5"
       id="guide8467"
       inkscape:locked="false"
       inkscape:label=""
       inkscape:color="rgb(0,0,255)" />
    <sodipodi:guide
       position="14,15"
       orientation="-0.5,0.8660254"
       id="guide8469"
       inkscape:locked="false"
       inkscape:label=""
       inkscape:color="rgb(0,0,255)" />
    <sodipodi:guide
       position="8,30"
       orientation="0.8660254,0.5"
       id="guide8471"
       inkscape:locked="false"
       inkscape:label=""
       inkscape:color="rgb(0,0,255)" />
    <sodipodi:guide
       position="29,14"
       orientation="-0.5,0.8660254"
       id="guide8479"
       inkscape:locked="false"
       inkscape:label=""
       inkscape:color="rgb(0,0,255)" />
    <sodipodi:guide
       position="14,23"
       orientation="0,1"
       id="guide8483"
       inkscape:locked="false" />
    <sodipodi:guide
       position="-5,13"
       orientation="-0.5,0.8660254"
       id="guide8485"
       inkscape:locked="false"
       inkscape:label=""
       inkscape:color="rgb(0,0,255)" />
    <sodipodi:guide
       position="27.856406,23"
       orientation="-0.8660254,0.5"
       id="guide8521"
       inkscape:locked="false"
       inkscape:label=""
       inkscape:color="rgb(0,0,255)" />
    <sodipodi:guide
       position="-6,16"
       orientation="0,1"
       id="guide8523"
       inkscape:locked="false" />
    <sodipodi:guide
       position="-1,26"
       orientation="0.5,0.8660254"
       id="guide8525"
       inkscape:locked="false"
       inkscape:label=""
       inkscape:color="rgb(0,0,255)" />
    <sodipodi:guide
       position="4,9.2264973"
       orientation="-0.8660254,0.5"
       id="guide8527"
       inkscape:locked="false"
       inkscape:label=""
       inkscape:color="rgb(0,0,255)" />
    <sodipodi:guide
       position="35,12"
       orientation="0,1"
       id="guide8529"
       inkscape:locked="false" />
  </sodipodi:namedview>
  <metadata
     id="metadata7">
    <rdf:RDF>
      <cc:Work
         rdf:about="">
        <dc:format>image/svg+xml</dc:format>
        <dc:type
           rdf:resource="http://purl.org/dc/dcmitype/StillImage" />
        <dc:title></dc:title>
      </cc:Work>
    </rdf:RDF>
  </metadata>
  <g
     inkscape:label="Layer 1"
     inkscape:groupmode="layer"
     id="layer1"
     transform="translate(0,-1020.3622)"
     style="display:inline;shape-rendering:crispEdges">
    <ellipse
       style="fill:#000000;fill-opacity:0;fill-rule:nonzero;stroke:none;shape-rendering:crispEdges"
       id="path5724"
       transform="translate(0,1020.3622)"
       cx="21.476374"
       cy="19.739464"
       rx="5.0063858"
       ry="2.0842912" />
    <path
       sodipodi:type="star"
       style="fill:#ffff00;stroke:#000000;stroke-opacity:1"
       id="path8448"
       sodipodi:sides="6"
       sodipodi:cx="16"
       sodipodi:cy="1036.3622"
       sodipodi:r1="16.124516"
       sodipodi:r2="13.96424"
       sodipodi:arg1="1.0516502"
       sodipodi:arg2="1.575249"
       inkscape:flatsided="true"
       inkscape:rounded="0"
       inkscape:randomized="0"
       d="m 24,1050.3622 -16.1243555,-0.072 -8.00000019,-14 8.12435549,-13.9282 16.1243552,0.072 8.000001,14 z"
       sodipodi:insensitive="true" />
    <path
       style="fill:#0000ff;fill-rule:evenodd;stroke:#000000;stroke-width:1px;stroke-linecap:butt;stroke-linejoin:miter;stroke-opacity:1;shape-rendering:crispEdges;fill-opacity:1"
       d="m 27.974609,5.2558594 a 3.7394636,3.6372924 0 0 0 -3.740234,3.6367187 3.7394636,3.6372924 0 0 0 1.017578,2.4902339 l -2.542969,4.404297 a 3.7394636,3.6372924 0 0 0 -0.835937,-0.0957 3.7394636,3.6372924 0 0 0 -2.515625,0.953125 l -5.71875,-3.302734 a 3.7394636,3.6372924 0 0 0 0.15039,-1.007813 3.7394636,3.6372924 0 0 0 -3.740234,-3.6367184 3.7394636,3.6372924 0 0 0 -3.7402342,3.6367184 3.7394636,3.6372924 0 0 0 1.0019531,2.470704 L 4.5996094,19.503906 A 3.7394636,3.6372924 0 0 0 3.984375,19.453125 3.7394636,3.6372924 0 0 0 0.24609375,23.089844 3.7394636,3.6372924 0 0 0 3.984375,26.728516 3.7394636,3.6372924 0 0 0 7.7246094,23.089844 3.7394636,3.6372924 0 0 0 6.4980469,20.402344 L 9.125,15.855469 a 3.7394636,3.6372924 0 0 0 0.923828,0.115234 3.7394636,3.6372924 0 0 0 2.431641,-0.878906 l 5.77539,3.333984 a 3.7394636,3.6372924 0 0 0 -0.121093,0.904297 3.7394636,3.6372924 0 0 0 3.738281,3.636719 3.7394636,3.6372924 0 0 0 3.740234,-3.636719 3.7394636,3.6372924 0 0 0 -1.066406,-2.539062 l 2.525391,-4.373047 a 3.7394636,3.6372924 0 0 0 0.902343,0.111328 3.7394636,3.6372924 0 0 0 3.740235,-3.6367189 3.7394636,3.6372924 0 0 0 -3.740235,-3.6367187 z"
       transform="translate(0,1020.3622)"
       id="path2993"
       inkscape:connector-curvature="0" />
  </g>
</svg>
