<?xml version="1.0" encoding="UTF-8" standalone="no"?>
<!-- Created with Inkscape (http://www.inkscape.org/) -->

<svg
   xmlns:dc="http://purl.org/dc/elements/1.1/"
   xmlns:cc="http://creativecommons.org/ns#"
   xmlns:rdf="http://www.w3.org/1999/02/22-rdf-syntax-ns#"
   xmlns:svg="http://www.w3.org/2000/svg"
   xmlns="http://www.w3.org/2000/svg"
   xmlns:sodipodi="http://sodipodi.sourceforge.net/DTD/sodipodi-0.dtd"
   xmlns:inkscape="http://www.inkscape.org/namespaces/inkscape"
   width="32"
   height="32"
   id="svg2"
   version="1.1"
   inkscape:version="0.92.2 (5c3e80d, 2017-08-06)"
   sodipodi:docname="ClamAV_none.svg"
   inkscape:export-filename="C:\Source\SVN\vb.net\Watch\WatchApp\Images\watch.png"
   inkscape:export-xdpi="768"
   inkscape:export-ydpi="768"
   enable-background="new"
   shape-rendering="crispEdges">
  <defs
     id="defs4" />
  <sodipodi:namedview
     id="base"
     pagecolor="#000000"
     bordercolor="#666666"
     borderopacity="1.0"
     inkscape:pageopacity="0"
     inkscape:pageshadow="2"
     inkscape:zoom="34.604038"
     inkscape:cx="9.500468"
     inkscape:cy="19.116495"
     inkscape:document-units="px"
     inkscape:current-layer="layer1"
     showgrid="true"
     inkscape:window-width="2736"
     inkscape:window-height="1719"
     inkscape:window-x="-13"
     inkscape:window-y="-13"
     inkscape:window-maximized="1"
     showborder="true"
     showguides="true"
     inkscape:snap-global="true"
     inkscape:pagecheckerboard="true"
     inkscape:guide-bbox="true"
     inkscape:snap-grids="false">
    <inkscape:grid
       type="xygrid"
       id="grid26" />
    <sodipodi:guide
       position="27,35"
       orientation="-0.8660254,0.5"
       id="guide8467"
       inkscape:locked="false"
       inkscape:label=""
       inkscape:color="rgb(0,0,255)" />
    <sodipodi:guide
       position="14,15"
       orientation="-0.5,0.8660254"
       id="guide8469"
       inkscape:locked="false"
       inkscape:label=""
       inkscape:color="rgb(0,0,255)" />
    <sodipodi:guide
       position="8,30"
       orientation="0.8660254,0.5"
       id="guide8471"
       inkscape:locked="false"
       inkscape:label=""
       inkscape:color="rgb(0,0,255)" />
    <sodipodi:guide
       position="29,14"
       orientation="-0.5,0.8660254"
       id="guide8479"
       inkscape:locked="false"
       inkscape:label=""
       inkscape:color="rgb(0,0,255)" />
    <sodipodi:guide
       position="14,23"
       orientation="0,1"
       id="guide8483"
       inkscape:locked="false" />
    <sodipodi:guide
       position="-5,13"
       orientation="-0.5,0.8660254"
       id="guide8485"
       inkscape:locked="false"
       inkscape:label=""
       inkscape:color="rgb(0,0,255)" />
    <sodipodi:guide
       position="27.856406,23"
       orientation="-0.8660254,0.5"
       id="guide8521"
       inkscape:locked="false"
       inkscape:label=""
       inkscape:color="rgb(0,0,255)" />
    <sodipodi:guide
       position="-6,16"
       orientation="0,1"
       id="guide8523"
       inkscape:locked="false" />
    <sodipodi:guide
       position="-1,26"
       orientation="0.5,0.8660254"
       id="guide8525"
       inkscape:locked="false"
       inkscape:label=""
       inkscape:color="rgb(0,0,255)" />
    <sodipodi:guide
       position="4,9.2264973"
       orientation="-0.8660254,0.5"
       id="guide8527"
       inkscape:locked="false"
       inkscape:label=""
       inkscape:color="rgb(0,0,255)" />
    <sodipodi:guide
       position="35,12"
       orientation="0,1"
       id="guide8529"
       inkscape:locked="false" />
  </sodipodi:namedview>
  <metadata
     id="metadata7">
    <rdf:RDF>
      <cc:Work
         rdf:about="">
        <dc:format>image/svg+xml</dc:format>
        <dc:type
           rdf:resource="http://purl.org/dc/dcmitype/StillImage" />
        <dc:title></dc:title>
      </cc:Work>
    </rdf:RDF>
  </metadata>
  <g
     inkscape:label="Layer 1"
     inkscape:groupmode="layer"
     id="layer1"
     transform="translate(0,-1020.3622)"
     style="display:inline;shape-rendering:crispEdges">
    <ellipse
       style="fill:#000000;fill-opacity:0;fill-rule:nonzero;stroke:none;shape-rendering:crispEdges"
       id="path5724"
       transform="translate(0,1020.3622)"
       cx="21.476374"
       cy="19.739464"
       rx="5.0063858"
       ry="2.0842912" />
    <path
       style="fill:#ffff00;stroke:#000000;stroke-opacity:1"
       d="m 8,2 -8.125,13.927734 2.28125,3.992188 a 3.7394636,3.6372924 0 0 1 1.828125,-0.466797 3.7394636,3.6372924 0 0 1 0.6152344,0.05078 l 2.7109375,-4.699218 a 3.7394636,3.6372924 0 0 1 -1.0019531,-2.470704 3.7394636,3.6372924 0 0 1 3.7402342,-3.6367184 3.7394636,3.6372924 0 0 1 3.740234,3.6367184 3.7394636,3.6372924 0 0 1 -0.15039,1.007813 l 5.71875,3.302734 a 3.7394636,3.6372924 0 0 1 2.515625,-0.953125 3.7394636,3.6372924 0 0 1 0.835937,0.0957 l 2.542969,-4.404297 A 3.7394636,3.6372924 0 0 1 24.234375,8.8925781 3.7394636,3.6372924 0 0 1 26.195312,5.6953125 L 24.125,2.0722656 Z m 21.826172,10.048828 a 3.7394636,3.6372924 0 0 1 -1.851563,0.480469 3.7394636,3.6372924 0 0 1 -0.902343,-0.111328 l -2.525391,4.373047 a 3.7394636,3.6372924 0 0 1 1.066406,2.539062 3.7394636,3.6372924 0 0 1 -3.740234,3.636719 3.7394636,3.6372924 0 0 1 -3.738281,-3.636719 3.7394636,3.6372924 0 0 1 0.121093,-0.904297 l -5.77539,-3.333984 A 3.7394636,3.6372924 0 0 1 10.048828,15.970703 3.7394636,3.6372924 0 0 1 9.125,15.855469 l -2.6269531,4.546875 a 3.7394636,3.6372924 0 0 1 1.2265625,2.6875 3.7394636,3.6372924 0 0 1 -1.9355469,3.1875 L 7.875,29.927734 24,30 32.125,16.072266 Z"
       transform="translate(0,1020.3622)"
       id="path8448"
       inkscape:connector-curvature="0" />
  </g>
</svg>
